<svg width="402" height="82" viewBox="0 0 402 82" fill="none" xmlns="http://www.w3.org/2000/svg">
<path d="M20.375 8.35C25.925 8.35 30.775 9.45 34.925 11.65C39.075 13.85 42.275 16.95 44.525 20.95C46.825 24.9 47.975 29.475 47.975 34.675C47.975 39.825 46.825 44.4 44.525 48.4C42.275 52.4 39.05 55.5 34.85 57.7C30.7 59.9 25.875 61 20.375 61H0.65V8.35H20.375ZM19.55 49.9C24.4 49.9 28.175 48.575 30.875 45.925C33.575 43.275 34.925 39.525 34.925 34.675C34.925 29.825 33.575 26.05 30.875 23.35C28.175 20.65 24.4 19.3 19.55 19.3H13.475V49.9H19.55ZM52.5922 40C52.5922 35.7 53.3922 31.925 54.9922 28.675C56.6422 25.425 58.8672 22.925 61.6672 21.175C64.4672 19.425 67.5922 18.55 71.0422 18.55C73.9922 18.55 76.5672 19.15 78.7672 20.35C81.0172 21.55 82.7422 23.125 83.9422 25.075V19.15H96.7672V61H83.9422V55.075C82.6922 57.025 80.9422 58.6 78.6922 59.8C76.4922 61 73.9172 61.6 70.9672 61.6C67.5672 61.6 64.4672 60.725 61.6672 58.975C58.8672 57.175 56.6422 54.65 54.9922 51.4C53.3922 48.1 52.5922 44.3 52.5922 40ZM83.9422 40.075C83.9422 36.875 83.0422 34.35 81.2422 32.5C79.4922 30.65 77.3422 29.725 74.7922 29.725C72.2422 29.725 70.0672 30.65 68.2672 32.5C66.5172 34.3 65.6422 36.8 65.6422 40C65.6422 43.2 66.5172 45.75 68.2672 47.65C70.0672 49.5 72.2422 50.425 74.7922 50.425C77.3422 50.425 79.4922 49.5 81.2422 47.65C83.0422 45.8 83.9422 43.275 83.9422 40.075ZM129.371 50.125V61H122.846C118.196 61 114.571 59.875 111.971 57.625C109.371 55.325 108.071 51.6 108.071 46.45V29.8H102.971V19.15H108.071V8.95H120.896V19.15H129.296V29.8H120.896V46.6C120.896 47.85 121.196 48.75 121.796 49.3C122.396 49.85 123.396 50.125 124.796 50.125H129.371ZM175.964 39.4C175.964 40.6 175.889 41.85 175.739 43.15H146.714C146.914 45.75 147.739 47.75 149.189 49.15C150.689 50.5 152.514 51.175 154.664 51.175C157.864 51.175 160.089 49.825 161.339 47.125H174.989C174.289 49.875 173.014 52.35 171.164 54.55C169.364 56.75 167.089 58.475 164.339 59.725C161.589 60.975 158.514 61.6 155.114 61.6C151.014 61.6 147.364 60.725 144.164 58.975C140.964 57.225 138.464 54.725 136.664 51.475C134.864 48.225 133.964 44.425 133.964 40.075C133.964 35.725 134.839 31.925 136.589 28.675C138.389 25.425 140.889 22.925 144.089 21.175C147.289 19.425 150.964 18.55 155.114 18.55C159.164 18.55 162.764 19.4 165.914 21.1C169.064 22.8 171.514 25.225 173.264 28.375C175.064 31.525 175.964 35.2 175.964 39.4ZM162.839 36.025C162.839 33.825 162.089 32.075 160.589 30.775C159.089 29.475 157.214 28.825 154.964 28.825C152.814 28.825 150.989 29.45 149.489 30.7C148.039 31.95 147.139 33.725 146.789 36.025H162.839ZM245.724 61H232.899L211.449 28.525V61H198.624V8.35H211.449L232.899 40.975V8.35H245.724V61ZM261.47 14.8C259.22 14.8 257.37 14.15 255.92 12.85C254.52 11.5 253.82 9.85 253.82 7.9C253.82 5.9 254.52 4.25 255.92 2.95C257.37 1.6 259.22 0.924996 261.47 0.924996C263.67 0.924996 265.47 1.6 266.87 2.95C268.32 4.25 269.045 5.9 269.045 7.9C269.045 9.85 268.32 11.5 266.87 12.85C265.47 14.15 263.67 14.8 261.47 14.8ZM267.845 19.15V61H255.02V19.15H267.845ZM293.039 18.55C295.989 18.55 298.564 19.15 300.764 20.35C303.014 21.55 304.739 23.125 305.939 25.075V19.15H318.764V60.925C318.764 64.775 317.989 68.25 316.439 71.35C314.939 74.5 312.614 77 309.464 78.85C306.364 80.7 302.489 81.625 297.839 81.625C291.639 81.625 286.614 80.15 282.764 77.2C278.914 74.3 276.714 70.35 276.164 65.35H288.839C289.239 66.95 290.189 68.2 291.689 69.1C293.189 70.05 295.039 70.525 297.239 70.525C299.889 70.525 301.989 69.75 303.539 68.2C305.139 66.7 305.939 64.275 305.939 60.925V55C304.689 56.95 302.964 58.55 300.764 59.8C298.564 61 295.989 61.6 293.039 61.6C289.589 61.6 286.464 60.725 283.664 58.975C280.864 57.175 278.639 54.65 276.989 51.4C275.389 48.1 274.589 44.3 274.589 40C274.589 35.7 275.389 31.925 276.989 28.675C278.639 25.425 280.864 22.925 283.664 21.175C286.464 19.425 289.589 18.55 293.039 18.55ZM305.939 40.075C305.939 36.875 305.039 34.35 303.239 32.5C301.489 30.65 299.339 29.725 296.789 29.725C294.239 29.725 292.064 30.65 290.264 32.5C288.514 34.3 287.639 36.8 287.639 40C287.639 43.2 288.514 45.75 290.264 47.65C292.064 49.5 294.239 50.425 296.789 50.425C299.339 50.425 301.489 49.5 303.239 47.65C305.039 45.8 305.939 43.275 305.939 40.075ZM353.768 18.7C358.568 18.7 362.418 20.3 365.318 23.5C368.218 26.65 369.668 31 369.668 36.55V61H356.918V38.275C356.918 35.475 356.193 33.3 354.743 31.75C353.293 30.2 351.343 29.425 348.893 29.425C346.443 29.425 344.493 30.2 343.043 31.75C341.593 33.3 340.868 35.475 340.868 38.275V61H328.043V5.5H340.868V24.775C342.168 22.925 343.943 21.45 346.193 20.35C348.443 19.25 350.968 18.7 353.768 18.7ZM401.905 50.125V61H395.38C390.73 61 387.105 59.875 384.505 57.625C381.905 55.325 380.605 51.6 380.605 46.45V29.8H375.505V19.15H380.605V8.95H393.43V19.15H401.83V29.8H393.43V46.6C393.43 47.85 393.73 48.75 394.33 49.3C394.93 49.85 395.93 50.125 397.33 50.125H401.905Z" fill="white"/>
</svg>
