<svg width="360" height="195" viewBox="0 0 360 195" fill="none" xmlns="http://www.w3.org/2000/svg">
<path d="M130.961 25C130.011 23.25 128.636 21.925 126.836 21.025C125.086 20.075 123.011 19.6 120.611 19.6C116.461 19.6 113.136 20.975 110.636 23.725C108.136 26.425 106.886 30.05 106.886 34.6C106.886 39.45 108.186 43.25 110.786 46C113.436 48.7 117.061 50.05 121.661 50.05C124.811 50.05 127.461 49.25 129.611 47.65C131.811 46.05 133.411 43.75 134.411 40.75H118.136V31.3H146.036V43.225C145.086 46.425 143.461 49.4 141.161 52.15C138.911 54.9 136.036 57.125 132.536 58.825C129.036 60.525 125.086 61.375 120.686 61.375C115.486 61.375 110.836 60.25 106.736 58C102.686 55.7 99.5113 52.525 97.2113 48.475C94.9613 44.425 93.8363 39.8 93.8363 34.6C93.8363 29.4 94.9613 24.775 97.2113 20.725C99.5113 16.625 102.686 13.45 106.736 11.2C110.786 8.9 115.411 7.75 120.611 7.75C126.911 7.75 132.211 9.275 136.511 12.325C140.861 15.375 143.736 19.6 145.136 25H130.961ZM159.59 14.8C157.34 14.8 155.49 14.15 154.04 12.85C152.64 11.5 151.94 9.85 151.94 7.9C151.94 5.9 152.64 4.25 154.04 2.95C155.49 1.6 157.34 0.924996 159.59 0.924996C161.79 0.924996 163.59 1.6 164.99 2.95C166.44 4.25 167.165 5.9 167.165 7.9C167.165 9.85 166.44 11.5 164.99 12.85C163.59 14.15 161.79 14.8 159.59 14.8ZM165.965 19.15V61H153.14V19.15H165.965ZM188.084 26.125C189.584 23.825 191.459 22.025 193.709 20.725C195.959 19.375 198.459 18.7 201.209 18.7V32.275H197.684C194.484 32.275 192.084 32.975 190.484 34.375C188.884 35.725 188.084 38.125 188.084 41.575V61H175.259V19.15H188.084V26.125ZM220.164 5.5V61H207.339V5.5H220.164ZM246.484 61.6C242.834 61.6 239.584 60.975 236.734 59.725C233.884 58.475 231.634 56.775 229.984 54.625C228.334 52.425 227.409 49.975 227.209 47.275H239.884C240.034 48.725 240.709 49.9 241.909 50.8C243.109 51.7 244.584 52.15 246.334 52.15C247.934 52.15 249.159 51.85 250.009 51.25C250.909 50.6 251.359 49.775 251.359 48.775C251.359 47.575 250.734 46.7 249.484 46.15C248.234 45.55 246.209 44.9 243.409 44.2C240.409 43.5 237.909 42.775 235.909 42.025C233.909 41.225 232.184 40 230.734 38.35C229.284 36.65 228.559 34.375 228.559 31.525C228.559 29.125 229.209 26.95 230.509 25C231.859 23 233.809 21.425 236.359 20.275C238.959 19.125 242.034 18.55 245.584 18.55C250.834 18.55 254.959 19.85 257.959 22.45C261.009 25.05 262.759 28.5 263.209 32.8H251.359C251.159 31.35 250.509 30.2 249.409 29.35C248.359 28.5 246.959 28.075 245.209 28.075C243.709 28.075 242.559 28.375 241.759 28.975C240.959 29.525 240.559 30.3 240.559 31.3C240.559 32.5 241.184 33.4 242.434 34C243.734 34.6 245.734 35.2 248.434 35.8C251.534 36.6 254.059 37.4 256.009 38.2C257.959 38.95 259.659 40.2 261.109 41.95C262.609 43.65 263.384 45.95 263.434 48.85C263.434 51.3 262.734 53.5 261.334 55.45C259.984 57.35 258.009 58.85 255.409 59.95C252.859 61.05 249.884 61.6 246.484 61.6ZM47.75 174H34.925L13.475 141.525V174H0.65V121.35H13.475L34.925 153.975V121.35H47.75V174ZM63.4965 127.8C61.2465 127.8 59.3965 127.15 57.9465 125.85C56.5465 124.5 55.8465 122.85 55.8465 120.9C55.8465 118.9 56.5465 117.25 57.9465 115.95C59.3965 114.6 61.2465 113.925 63.4965 113.925C65.6965 113.925 67.4965 114.6 68.8965 115.95C70.3465 117.25 71.0715 118.9 71.0715 120.9C71.0715 122.85 70.3465 124.5 68.8965 125.85C67.4965 127.15 65.6965 127.8 63.4965 127.8ZM69.8715 132.15V174H57.0465V132.15H69.8715ZM95.0656 131.55C98.0156 131.55 100.591 132.15 102.791 133.35C105.041 134.55 106.766 136.125 107.966 138.075V132.15H120.791V173.925C120.791 177.775 120.016 181.25 118.466 184.35C116.966 187.5 114.641 190 111.491 191.85C108.391 193.7 104.516 194.625 99.8656 194.625C93.6656 194.625 88.6406 193.15 84.7906 190.2C80.9406 187.3 78.7406 183.35 78.1906 178.35H90.8656C91.2656 179.95 92.2156 181.2 93.7156 182.1C95.2156 183.05 97.0656 183.525 99.2656 183.525C101.916 183.525 104.016 182.75 105.566 181.2C107.166 179.7 107.966 177.275 107.966 173.925V168C106.716 169.95 104.991 171.55 102.791 172.8C100.591 174 98.0156 174.6 95.0656 174.6C91.6156 174.6 88.4906 173.725 85.6906 171.975C82.8906 170.175 80.6656 167.65 79.0156 164.4C77.4156 161.1 76.6156 157.3 76.6156 153C76.6156 148.7 77.4156 144.925 79.0156 141.675C80.6656 138.425 82.8906 135.925 85.6906 134.175C88.4906 132.425 91.6156 131.55 95.0656 131.55ZM107.966 153.075C107.966 149.875 107.066 147.35 105.266 145.5C103.516 143.65 101.366 142.725 98.8156 142.725C96.2656 142.725 94.0906 143.65 92.2906 145.5C90.5406 147.3 89.6656 149.8 89.6656 153C89.6656 156.2 90.5406 158.75 92.2906 160.65C94.0906 162.5 96.2656 163.425 98.8156 163.425C101.366 163.425 103.516 162.5 105.266 160.65C107.066 158.8 107.966 156.275 107.966 153.075ZM155.794 131.7C160.594 131.7 164.444 133.3 167.344 136.5C170.244 139.65 171.694 144 171.694 149.55V174H158.944V151.275C158.944 148.475 158.219 146.3 156.769 144.75C155.319 143.2 153.369 142.425 150.919 142.425C148.469 142.425 146.519 143.2 145.069 144.75C143.619 146.3 142.894 148.475 142.894 151.275V174H130.069V118.5H142.894V137.775C144.194 135.925 145.969 134.45 148.219 133.35C150.469 132.25 152.994 131.7 155.794 131.7ZM203.931 163.125V174H197.406C192.756 174 189.131 172.875 186.531 170.625C183.931 168.325 182.631 164.6 182.631 159.45V142.8H177.531V132.15H182.631V121.95H195.456V132.15H203.856V142.8H195.456V159.6C195.456 160.85 195.756 161.75 196.356 162.3C196.956 162.85 197.956 163.125 199.356 163.125H203.931ZM251.868 174.525C246.918 174.525 242.368 173.375 238.218 171.075C234.118 168.775 230.843 165.575 228.393 161.475C225.993 157.325 224.793 152.675 224.793 147.525C224.793 142.375 225.993 137.75 228.393 133.65C230.843 129.55 234.118 126.35 238.218 124.05C242.368 121.75 246.918 120.6 251.868 120.6C256.818 120.6 261.343 121.75 265.443 124.05C269.593 126.35 272.843 129.55 275.193 133.65C277.593 137.75 278.793 142.375 278.793 147.525C278.793 152.675 277.593 157.325 275.193 161.475C272.793 165.575 269.543 168.775 265.443 171.075C261.343 173.375 256.818 174.525 251.868 174.525ZM251.868 162.825C256.068 162.825 259.418 161.425 261.918 158.625C264.468 155.825 265.743 152.125 265.743 147.525C265.743 142.875 264.468 139.175 261.918 136.425C259.418 133.625 256.068 132.225 251.868 132.225C247.618 132.225 244.218 133.6 241.668 136.35C239.168 139.1 237.918 142.825 237.918 147.525C237.918 152.175 239.168 155.9 241.668 158.7C244.218 161.45 247.618 162.825 251.868 162.825ZM327.253 132.15V174H314.428V168.3C313.128 170.15 311.353 171.65 309.103 172.8C306.903 173.9 304.453 174.45 301.753 174.45C298.553 174.45 295.728 173.75 293.278 172.35C290.828 170.9 288.928 168.825 287.578 166.125C286.228 163.425 285.553 160.25 285.553 156.6V132.15H298.303V154.875C298.303 157.675 299.028 159.85 300.478 161.4C301.928 162.95 303.878 163.725 306.328 163.725C308.828 163.725 310.803 162.95 312.253 161.4C313.703 159.85 314.428 157.675 314.428 154.875V132.15H327.253ZM359.79 163.125V174H353.265C348.615 174 344.99 172.875 342.39 170.625C339.79 168.325 338.49 164.6 338.49 159.45V142.8H333.39V132.15H338.49V121.95H351.315V132.15H359.715V142.8H351.315V159.6C351.315 160.85 351.615 161.75 352.215 162.3C352.815 162.85 353.815 163.125 355.215 163.125H359.79Z" fill="white"/>
</svg>
