<svg width="606" height="145" viewBox="0 0 606 145" fill="none" xmlns="http://www.w3.org/2000/svg">
<path d="M22.69 22.665C24.3367 22.925 25.8317 23.5967 27.175 24.68C28.5617 25.7633 29.645 27.1067 30.425 28.71C31.2483 30.3133 31.66 32.025 31.66 33.845C31.66 36.1417 31.075 38.2217 29.905 40.085C28.735 41.905 27.0233 43.3567 24.77 44.44C22.56 45.48 19.9383 46 16.905 46H0.00500046V0.694998H16.255C19.3317 0.694998 21.9533 1.215 24.12 2.255C26.2867 3.25166 27.9117 4.61666 28.995 6.35C30.0783 8.08333 30.62 10.0333 30.62 12.2C30.62 14.8867 29.8833 17.1183 28.41 18.895C26.98 20.6283 25.0733 21.885 22.69 22.665ZM5.92 20.26H15.865C18.6383 20.26 20.7833 19.61 22.3 18.31C23.8167 17.01 24.575 15.2117 24.575 12.915C24.575 10.6183 23.8167 8.82 22.3 7.52C20.7833 6.22 18.595 5.57 15.735 5.57H5.92V20.26ZM16.385 41.125C19.3317 41.125 21.6283 40.4317 23.275 39.045C24.9217 37.6583 25.745 35.73 25.745 33.26C25.745 30.7467 24.8783 28.775 23.145 27.345C21.4117 25.8717 19.0933 25.135 16.19 25.135H5.92V41.125H16.385ZM72.3683 26.825C72.3683 27.9517 72.3033 29.1433 72.1733 30.4H43.7033C43.9199 33.91 45.1116 36.6617 47.2783 38.655C49.4883 40.605 52.1533 41.58 55.2733 41.58C57.8299 41.58 59.9533 40.995 61.6433 39.825C63.3766 38.6117 64.5899 37.0083 65.2833 35.015H71.6533C70.7 38.4383 68.7933 41.2333 65.9333 43.4C63.0733 45.5233 59.5199 46.585 55.2733 46.585C51.8933 46.585 48.8599 45.8267 46.1733 44.31C43.5299 42.7933 41.4499 40.6483 39.9333 37.875C38.4166 35.0583 37.6583 31.8083 37.6583 28.125C37.6583 24.4417 38.3949 21.2133 39.8683 18.44C41.3416 15.6667 43.3999 13.5433 46.0433 12.07C48.7299 10.5533 51.8066 9.795 55.2733 9.795C58.6533 9.795 61.6433 10.5317 64.2433 12.005C66.8433 13.4783 68.8366 15.515 70.2233 18.115C71.6533 20.6717 72.3683 23.575 72.3683 26.825ZM66.2583 25.59C66.2583 23.3367 65.7599 21.4083 64.7633 19.805C63.7666 18.1583 62.4016 16.9233 60.6683 16.1C58.9783 15.2333 57.0933 14.8 55.0133 14.8C52.0233 14.8 49.4666 15.7533 47.3433 17.66C45.2633 19.5667 44.0716 22.21 43.7683 25.59H66.2583ZM77.9659 28.125C77.9659 24.4417 78.7026 21.235 80.1759 18.505C81.6492 15.7317 83.6859 13.5867 86.2859 12.07C88.9292 10.5533 91.9409 9.795 95.3209 9.795C99.6976 9.795 103.294 10.8567 106.111 12.98C108.971 15.1033 110.856 18.05 111.766 21.82H105.396C104.789 19.6533 103.598 17.9417 101.821 16.685C100.088 15.4283 97.9209 14.8 95.3209 14.8C91.9409 14.8 89.2109 15.97 87.1309 18.31C85.0509 20.6067 84.0109 23.8783 84.0109 28.125C84.0109 32.415 85.0509 35.73 87.1309 38.07C89.2109 40.41 91.9409 41.58 95.3209 41.58C97.9209 41.58 100.088 40.9733 101.821 39.76C103.554 38.5467 104.746 36.8133 105.396 34.56H111.766C110.813 38.2 108.906 41.125 106.046 43.335C103.186 45.5017 99.6109 46.585 95.3209 46.585C91.9409 46.585 88.9292 45.8267 86.2859 44.31C83.6859 42.7933 81.6492 40.6483 80.1759 37.875C78.7026 35.1017 77.9659 31.8517 77.9659 28.125ZM117.448 28.06C117.448 24.42 118.185 21.235 119.658 18.505C121.132 15.7317 123.147 13.5867 125.703 12.07C128.303 10.5533 131.185 9.795 134.348 9.795C137.468 9.795 140.177 10.4667 142.473 11.81C144.77 13.1533 146.482 14.8433 147.608 16.88V10.38H153.588V46H147.608V39.37C146.438 41.45 144.683 43.1833 142.343 44.57C140.047 45.9133 137.36 46.585 134.283 46.585C131.12 46.585 128.26 45.805 125.703 44.245C123.147 42.685 121.132 40.4967 119.658 37.68C118.185 34.8633 117.448 31.6567 117.448 28.06ZM147.608 28.125C147.608 25.4383 147.067 23.0983 145.983 21.105C144.9 19.1117 143.427 17.595 141.563 16.555C139.743 15.4717 137.728 14.93 135.518 14.93C133.308 14.93 131.293 15.45 129.473 16.49C127.653 17.53 126.202 19.0467 125.118 21.04C124.035 23.0333 123.493 25.3733 123.493 28.06C123.493 30.79 124.035 33.1733 125.118 35.21C126.202 37.2033 127.653 38.7417 129.473 39.825C131.293 40.865 133.308 41.385 135.518 41.385C137.728 41.385 139.743 40.865 141.563 39.825C143.427 38.7417 144.9 37.2033 145.983 35.21C147.067 33.1733 147.608 30.8117 147.608 28.125ZM195.174 10.38V46H189.259V40.735C188.132 42.555 186.551 43.985 184.514 45.025C182.521 46.0217 180.311 46.52 177.884 46.52C175.111 46.52 172.619 45.9567 170.409 44.83C168.199 43.66 166.444 41.9267 165.144 39.63C163.887 37.3333 163.259 34.5383 163.259 31.245V10.38H169.109V30.465C169.109 33.975 169.997 36.6833 171.774 38.59C173.551 40.4533 175.977 41.385 179.054 41.385C182.217 41.385 184.709 40.41 186.529 38.46C188.349 36.51 189.259 33.6717 189.259 29.945V10.38H195.174ZM217.771 46.585C215.041 46.585 212.593 46.13 210.426 45.22C208.26 44.2667 206.548 42.9667 205.291 41.32C204.035 39.63 203.341 37.7017 203.211 35.535H209.321C209.495 37.3117 210.318 38.7633 211.791 39.89C213.308 41.0167 215.28 41.58 217.706 41.58C219.96 41.58 221.736 41.0817 223.036 40.085C224.336 39.0883 224.986 37.8317 224.986 36.315C224.986 34.755 224.293 33.6067 222.906 32.87C221.52 32.09 219.375 31.3317 216.471 30.595C213.828 29.9017 211.661 29.2083 209.971 28.515C208.325 27.7783 206.895 26.7167 205.681 25.33C204.511 23.9 203.926 22.0367 203.926 19.74C203.926 17.92 204.468 16.2517 205.551 14.735C206.635 13.2183 208.173 12.0267 210.166 11.16C212.16 10.25 214.435 9.795 216.991 9.795C220.935 9.795 224.12 10.7917 226.546 12.785C228.973 14.7783 230.273 17.5083 230.446 20.975H224.531C224.401 19.1117 223.643 17.6167 222.256 16.49C220.913 15.3633 219.093 14.8 216.796 14.8C214.673 14.8 212.983 15.255 211.726 16.165C210.47 17.075 209.841 18.2667 209.841 19.74C209.841 20.91 210.21 21.885 210.946 22.665C211.726 23.4017 212.68 24.0083 213.806 24.485C214.976 24.9183 216.58 25.4167 218.616 25.98C221.173 26.6733 223.253 27.3667 224.856 28.06C226.46 28.71 227.825 29.7067 228.951 31.05C230.121 32.3933 230.728 34.1483 230.771 36.315C230.771 38.265 230.23 40.02 229.146 41.58C228.063 43.14 226.525 44.375 224.531 45.285C222.581 46.1517 220.328 46.585 217.771 46.585ZM271.621 26.825C271.621 27.9517 271.556 29.1433 271.426 30.4H242.956C243.173 33.91 244.365 36.6617 246.531 38.655C248.741 40.605 251.406 41.58 254.526 41.58C257.083 41.58 259.206 40.995 260.896 39.825C262.63 38.6117 263.843 37.0083 264.536 35.015H270.906C269.953 38.4383 268.046 41.2333 265.186 43.4C262.326 45.5233 258.773 46.585 254.526 46.585C251.146 46.585 248.113 45.8267 245.426 44.31C242.783 42.7933 240.703 40.6483 239.186 37.875C237.67 35.0583 236.911 31.8083 236.911 28.125C236.911 24.4417 237.648 21.2133 239.121 18.44C240.595 15.6667 242.653 13.5433 245.296 12.07C247.983 10.5533 251.06 9.795 254.526 9.795C257.906 9.795 260.896 10.5317 263.496 12.005C266.096 13.4783 268.09 15.515 269.476 18.115C270.906 20.6717 271.621 23.575 271.621 26.825ZM265.511 25.59C265.511 23.3367 265.013 21.4083 264.016 19.805C263.02 18.1583 261.655 16.9233 259.921 16.1C258.231 15.2333 256.346 14.8 254.266 14.8C251.276 14.8 248.72 15.7533 246.596 17.66C244.516 19.5667 243.325 22.21 243.021 25.59H265.511ZM302.673 5.505V20.65H319.183V25.525H302.673V41.125H321.133V46H296.758V0.629999H321.133V5.505H302.673ZM343.343 40.54L354.393 10.38H360.698L346.723 46H339.833L325.858 10.38H332.228L343.343 40.54ZM399.019 26.825C399.019 27.9517 398.954 29.1433 398.824 30.4H370.354C370.57 33.91 371.762 36.6617 373.929 38.655C376.139 40.605 378.804 41.58 381.924 41.58C384.48 41.58 386.604 40.995 388.294 39.825C390.027 38.6117 391.24 37.0083 391.934 35.015H398.304C397.35 38.4383 395.444 41.2333 392.584 43.4C389.724 45.5233 386.17 46.585 381.924 46.585C378.544 46.585 375.51 45.8267 372.824 44.31C370.18 42.7933 368.1 40.6483 366.584 37.875C365.067 35.0583 364.309 31.8083 364.309 28.125C364.309 24.4417 365.045 21.2133 366.519 18.44C367.992 15.6667 370.05 13.5433 372.694 12.07C375.38 10.5533 378.457 9.795 381.924 9.795C385.304 9.795 388.294 10.5317 390.894 12.005C393.494 13.4783 395.487 15.515 396.874 18.115C398.304 20.6717 399.019 23.575 399.019 26.825ZM392.909 25.59C392.909 23.3367 392.41 21.4083 391.414 19.805C390.417 18.1583 389.052 16.9233 387.319 16.1C385.629 15.2333 383.744 14.8 381.664 14.8C378.674 14.8 376.117 15.7533 373.994 17.66C371.914 19.5667 370.722 22.21 370.419 25.59H392.909ZM412.741 16.165C413.781 14.1283 415.255 12.5467 417.161 11.42C419.111 10.2933 421.473 9.73 424.246 9.73V15.84H422.686C416.056 15.84 412.741 19.4367 412.741 26.63V46H406.826V10.38H412.741V16.165ZM461.754 10.38L440.304 62.77H434.194L441.214 45.61L426.849 10.38H433.414L444.594 39.24L455.644 10.38H461.754ZM499.134 0.694998C504.074 0.694998 508.343 1.62666 511.939 3.49C515.579 5.31 518.353 7.93166 520.259 11.355C522.209 14.7783 523.184 18.8083 523.184 23.445C523.184 28.0817 522.209 32.1117 520.259 35.535C518.353 38.915 515.579 41.515 511.939 43.335C508.343 45.1117 504.074 46 499.134 46H485.029V0.694998H499.134ZM499.134 41.125C504.984 41.125 509.448 39.5867 512.524 36.51C515.601 33.39 517.139 29.035 517.139 23.445C517.139 17.8117 515.579 13.4133 512.459 10.25C509.383 7.08667 504.941 5.505 499.134 5.505H490.944V41.125H499.134ZM528.776 28.06C528.776 24.42 529.513 21.235 530.986 18.505C532.46 15.7317 534.475 13.5867 537.031 12.07C539.631 10.5533 542.513 9.795 545.676 9.795C548.796 9.795 551.505 10.4667 553.801 11.81C556.098 13.1533 557.81 14.8433 558.936 16.88V10.38H564.916V46H558.936V39.37C557.766 41.45 556.011 43.1833 553.671 44.57C551.375 45.9133 548.688 46.585 545.611 46.585C542.448 46.585 539.588 45.805 537.031 44.245C534.475 42.685 532.46 40.4967 530.986 37.68C529.513 34.8633 528.776 31.6567 528.776 28.06ZM558.936 28.125C558.936 25.4383 558.395 23.0983 557.311 21.105C556.228 19.1117 554.755 17.595 552.891 16.555C551.071 15.4717 549.056 14.93 546.846 14.93C544.636 14.93 542.621 15.45 540.801 16.49C538.981 17.53 537.53 19.0467 536.446 21.04C535.363 23.0333 534.821 25.3733 534.821 28.06C534.821 30.79 535.363 33.1733 536.446 35.21C537.53 37.2033 538.981 38.7417 540.801 39.825C542.621 40.865 544.636 41.385 546.846 41.385C549.056 41.385 551.071 40.865 552.891 39.825C554.755 38.7417 556.228 37.2033 557.311 35.21C558.395 33.1733 558.936 30.8117 558.936 28.125ZM605.592 10.38L584.142 62.77H578.032L585.052 45.61L570.687 10.38H577.252L588.432 39.24L599.482 10.38H605.592Z" fill="white"/>
<path d="M108.722 144H97.6071L79.0171 115.855V144H67.9021V98.37H79.0171L97.6071 126.645V98.37H108.722V144ZM150.969 125.28C150.969 126.32 150.904 127.403 150.774 128.53H125.619C125.792 130.783 126.507 132.517 127.764 133.73C129.064 134.9 130.646 135.485 132.509 135.485C135.282 135.485 137.211 134.315 138.294 131.975H150.124C149.517 134.358 148.412 136.503 146.809 138.41C145.249 140.317 143.277 141.812 140.894 142.895C138.511 143.978 135.846 144.52 132.899 144.52C129.346 144.52 126.182 143.762 123.409 142.245C120.636 140.728 118.469 138.562 116.909 135.745C115.349 132.928 114.569 129.635 114.569 125.865C114.569 122.095 115.327 118.802 116.844 115.985C118.404 113.168 120.571 111.002 123.344 109.485C126.117 107.968 129.302 107.21 132.899 107.21C136.409 107.21 139.529 107.947 142.259 109.42C144.989 110.893 147.112 112.995 148.629 115.725C150.189 118.455 150.969 121.64 150.969 125.28ZM139.594 122.355C139.594 120.448 138.944 118.932 137.644 117.805C136.344 116.678 134.719 116.115 132.769 116.115C130.906 116.115 129.324 116.657 128.024 117.74C126.767 118.823 125.987 120.362 125.684 122.355H139.594ZM191.023 125.28C191.023 126.32 190.958 127.403 190.828 128.53H165.673C165.846 130.783 166.561 132.517 167.818 133.73C169.118 134.9 170.699 135.485 172.563 135.485C175.336 135.485 177.264 134.315 178.348 131.975H190.178C189.571 134.358 188.466 136.503 186.863 138.41C185.303 140.317 183.331 141.812 180.948 142.895C178.564 143.978 175.899 144.52 172.953 144.52C169.399 144.52 166.236 143.762 163.463 142.245C160.689 140.728 158.523 138.562 156.963 135.745C155.403 132.928 154.623 129.635 154.623 125.865C154.623 122.095 155.381 118.802 156.898 115.985C158.458 113.168 160.624 111.002 163.398 109.485C166.171 107.968 169.356 107.21 172.953 107.21C176.463 107.21 179.583 107.947 182.313 109.42C185.043 110.893 187.166 112.995 188.683 115.725C190.243 118.455 191.023 121.64 191.023 125.28ZM179.648 122.355C179.648 120.448 178.998 118.932 177.698 117.805C176.398 116.678 174.773 116.115 172.823 116.115C170.959 116.115 169.378 116.657 168.078 117.74C166.821 118.823 166.041 120.362 165.738 122.355H179.648ZM194.676 125.8C194.676 122.073 195.37 118.802 196.756 115.985C198.186 113.168 200.115 111.002 202.541 109.485C204.968 107.968 207.676 107.21 210.666 107.21C213.05 107.21 215.216 107.708 217.166 108.705C219.16 109.702 220.72 111.045 221.846 112.735V95.9H232.961V144H221.846V138.8C220.806 140.533 219.311 141.92 217.361 142.96C215.455 144 213.223 144.52 210.666 144.52C207.676 144.52 204.968 143.762 202.541 142.245C200.115 140.685 198.186 138.497 196.756 135.68C195.37 132.82 194.676 129.527 194.676 125.8ZM221.846 125.865C221.846 123.092 221.066 120.903 219.506 119.3C217.99 117.697 216.126 116.895 213.916 116.895C211.706 116.895 209.821 117.697 208.261 119.3C206.745 120.86 205.986 123.027 205.986 125.8C205.986 128.573 206.745 130.783 208.261 132.43C209.821 134.033 211.706 134.835 213.916 134.835C216.126 134.835 217.99 134.033 219.506 132.43C221.066 130.827 221.846 128.638 221.846 125.865ZM255.758 144.52C252.594 144.52 249.778 143.978 247.308 142.895C244.838 141.812 242.888 140.338 241.458 138.475C240.028 136.568 239.226 134.445 239.053 132.105H250.038C250.168 133.362 250.753 134.38 251.793 135.16C252.833 135.94 254.111 136.33 255.628 136.33C257.014 136.33 258.076 136.07 258.813 135.55C259.593 134.987 259.983 134.272 259.983 133.405C259.983 132.365 259.441 131.607 258.358 131.13C257.274 130.61 255.519 130.047 253.093 129.44C250.493 128.833 248.326 128.205 246.593 127.555C244.859 126.862 243.364 125.8 242.108 124.37C240.851 122.897 240.223 120.925 240.223 118.455C240.223 116.375 240.786 114.49 241.913 112.8C243.083 111.067 244.773 109.702 246.983 108.705C249.236 107.708 251.901 107.21 254.978 107.21C259.528 107.21 263.103 108.337 265.703 110.59C268.346 112.843 269.863 115.833 270.253 119.56H259.983C259.809 118.303 259.246 117.307 258.293 116.57C257.383 115.833 256.169 115.465 254.653 115.465C253.353 115.465 252.356 115.725 251.663 116.245C250.969 116.722 250.623 117.393 250.623 118.26C250.623 119.3 251.164 120.08 252.248 120.6C253.374 121.12 255.108 121.64 257.448 122.16C260.134 122.853 262.323 123.547 264.013 124.24C265.703 124.89 267.176 125.973 268.433 127.49C269.733 128.963 270.404 130.957 270.448 133.47C270.448 135.593 269.841 137.5 268.628 139.19C267.458 140.837 265.746 142.137 263.493 143.09C261.283 144.043 258.704 144.52 255.758 144.52ZM319.427 135.94H302.397L299.667 144H288.032L304.542 98.37H317.412L333.922 144H322.157L319.427 135.94ZM316.567 127.36L310.912 110.655L305.322 127.36H316.567ZM404.396 98.37V144H393.281V116.635L383.076 144H374.106L363.836 116.57V144H352.721V98.37H365.851L378.656 129.96L391.331 98.37H404.396ZM428.899 144.52C425.346 144.52 422.139 143.762 419.279 142.245C416.463 140.728 414.231 138.562 412.584 135.745C410.981 132.928 410.179 129.635 410.179 125.865C410.179 122.138 411.003 118.867 412.649 116.05C414.296 113.19 416.549 111.002 419.409 109.485C422.269 107.968 425.476 107.21 429.029 107.21C432.583 107.21 435.789 107.968 438.649 109.485C441.509 111.002 443.763 113.19 445.409 116.05C447.056 118.867 447.879 122.138 447.879 125.865C447.879 129.592 447.034 132.885 445.344 135.745C443.698 138.562 441.423 140.728 438.519 142.245C435.659 143.762 432.453 144.52 428.899 144.52ZM428.899 134.9C431.023 134.9 432.821 134.12 434.294 132.56C435.811 131 436.569 128.768 436.569 125.865C436.569 122.962 435.833 120.73 434.359 119.17C432.929 117.61 431.153 116.83 429.029 116.83C426.863 116.83 425.064 117.61 423.634 119.17C422.204 120.687 421.489 122.918 421.489 125.865C421.489 128.768 422.183 131 423.569 132.56C424.999 134.12 426.776 134.9 428.899 134.9ZM470.091 133.6L477.956 107.73H489.786L476.916 144H463.201L450.331 107.73H462.226L470.091 133.6ZM528.655 125.28C528.655 126.32 528.59 127.403 528.46 128.53H503.305C503.478 130.783 504.193 132.517 505.45 133.73C506.75 134.9 508.331 135.485 510.195 135.485C512.968 135.485 514.896 134.315 515.98 131.975H527.81C527.203 134.358 526.098 136.503 524.495 138.41C522.935 140.317 520.963 141.812 518.58 142.895C516.196 143.978 513.531 144.52 510.585 144.52C507.031 144.52 503.868 143.762 501.095 142.245C498.321 140.728 496.155 138.562 494.595 135.745C493.035 132.928 492.255 129.635 492.255 125.865C492.255 122.095 493.013 118.802 494.53 115.985C496.09 113.168 498.256 111.002 501.03 109.485C503.803 107.968 506.988 107.21 510.585 107.21C514.095 107.21 517.215 107.947 519.945 109.42C522.675 110.893 524.798 112.995 526.315 115.725C527.875 118.455 528.655 121.64 528.655 125.28ZM517.28 122.355C517.28 120.448 516.63 118.932 515.33 117.805C514.03 116.678 512.405 116.115 510.455 116.115C508.591 116.115 507.01 116.657 505.71 117.74C504.453 118.823 503.673 120.362 503.37 122.355H517.28ZM539.718 144.52C537.768 144.52 536.165 143.957 534.908 142.83C533.695 141.66 533.088 140.23 533.088 138.54C533.088 136.807 533.695 135.355 534.908 134.185C536.165 133.015 537.768 132.43 539.718 132.43C541.625 132.43 543.185 133.015 544.398 134.185C545.655 135.355 546.283 136.807 546.283 138.54C546.283 140.23 545.655 141.66 544.398 142.83C543.185 143.957 541.625 144.52 539.718 144.52Z" fill="#FEC62E"/>
</svg>
