<svg width="216" height="75" viewBox="0 0 216 75" fill="none" xmlns="http://www.w3.org/2000/svg">
<path d="M53.7 26.4C53.7 30.4667 52.7667 34.2 50.9 37.6C49.0333 40.9333 46.1667 43.6333 42.3 45.7C38.4333 47.7667 33.6333 48.8 27.9 48.8H17.3V74H0.2V3.8H27.9C33.5 3.8 38.2333 4.76666 42.1 6.7C45.9667 8.63333 48.8667 11.3 50.8 14.7C52.7333 18.1 53.7 22 53.7 26.4ZM26.6 35.2C29.8667 35.2 32.3 34.4333 33.9 32.9C35.5 31.3667 36.3 29.2 36.3 26.4C36.3 23.6 35.5 21.4333 33.9 19.9C32.3 18.3667 29.8667 17.6 26.6 17.6H17.3V35.2H26.6ZM79.7023 -9.53674e-07V74H62.6023V-9.53674e-07H79.7023ZM88.6945 46C88.6945 40.2667 89.7612 35.2333 91.8945 30.9C94.0945 26.5667 97.0612 23.2333 100.795 20.9C104.528 18.5667 108.695 17.4 113.295 17.4C117.228 17.4 120.661 18.2 123.595 19.8C126.595 21.4 128.895 23.5 130.495 26.1V18.2H147.595V74H130.495V66.1C128.828 68.7 126.495 70.8 123.495 72.4C120.561 74 117.128 74.8 113.195 74.8C108.661 74.8 104.528 73.6333 100.795 71.3C97.0612 68.9 94.0945 65.5333 91.8945 61.2C89.7612 56.8 88.6945 51.7333 88.6945 46ZM130.495 46.1C130.495 41.8333 129.295 38.4667 126.895 36C124.561 33.5333 121.695 32.3 118.295 32.3C114.895 32.3 111.995 33.5333 109.595 36C107.261 38.4 106.095 41.7333 106.095 46C106.095 50.2667 107.261 53.6667 109.595 56.2C111.995 58.6667 114.895 59.9 118.295 59.9C121.695 59.9 124.561 58.6667 126.895 56.2C129.295 53.7333 130.495 50.3667 130.495 46.1ZM193.966 17.6C200.499 17.6 205.699 19.7333 209.566 24C213.499 28.2 215.466 34 215.466 41.4V74H198.466V43.7C198.466 39.9667 197.499 37.0667 195.566 35C193.632 32.9333 191.032 31.9 187.766 31.9C184.499 31.9 181.899 32.9333 179.966 35C178.032 37.0667 177.066 39.9667 177.066 43.7V74H159.966V18.2H177.066V25.6C178.799 23.1333 181.132 21.2 184.066 19.8C186.999 18.3333 190.299 17.6 193.966 17.6Z" fill="white"/>
</svg>
