<svg width="243" height="74" viewBox="0 0 243 74" fill="none" xmlns="http://www.w3.org/2000/svg">
<path d="M20.7 54.525C16.85 54.525 13.4 53.9 10.35 52.65C7.3 51.4 4.85 49.55 3 47.1C1.2 44.65 0.25 41.7 0.15 38.25H13.8C14 40.2 14.675 41.7 15.825 42.75C16.975 43.75 18.475 44.25 20.325 44.25C22.225 44.25 23.725 43.825 24.825 42.975C25.925 42.075 26.475 40.85 26.475 39.3C26.475 38 26.025 36.925 25.125 36.075C24.275 35.225 23.2 34.525 21.9 33.975C20.65 33.425 18.85 32.8 16.5 32.1C13.1 31.05 10.325 30 8.175 28.95C6.025 27.9 4.175 26.35 2.625 24.3C1.075 22.25 0.3 19.575 0.3 16.275C0.3 11.375 2.075 7.55 5.625 4.8C9.175 2 13.8 0.599999 19.5 0.599999C25.3 0.599999 29.975 2 33.525 4.8C37.075 7.55 38.975 11.4 39.225 16.35H25.35C25.25 14.65 24.625 13.325 23.475 12.375C22.325 11.375 20.85 10.875 19.05 10.875C17.5 10.875 16.25 11.3 15.3 12.15C14.35 12.95 13.875 14.125 13.875 15.675C13.875 17.375 14.675 18.7 16.275 19.65C17.875 20.6 20.375 21.625 23.775 22.725C27.175 23.875 29.925 24.975 32.025 26.025C34.175 27.075 36.025 28.6 37.575 30.6C39.125 32.6 39.9 35.175 39.9 38.325C39.9 41.325 39.125 44.05 37.575 46.5C36.075 48.95 33.875 50.9 30.975 52.35C28.075 53.8 24.65 54.525 20.7 54.525ZM60.6176 18.075C61.8676 16.125 63.5926 14.55 65.7926 13.35C67.9926 12.15 70.5676 11.55 73.5176 11.55C76.9676 11.55 80.0926 12.425 82.8926 14.175C85.6926 15.925 87.8926 18.425 89.4926 21.675C91.1426 24.925 91.9676 28.7 91.9676 33C91.9676 37.3 91.1426 41.1 89.4926 44.4C87.8926 47.65 85.6926 50.175 82.8926 51.975C80.0926 53.725 76.9676 54.6 73.5176 54.6C70.6176 54.6 68.0426 54 65.7926 52.8C63.5926 51.6 61.8676 50.05 60.6176 48.15V73.95H47.7926V12.15H60.6176V18.075ZM78.9176 33C78.9176 29.8 78.0176 27.3 76.2176 25.5C74.4676 23.65 72.2926 22.725 69.6926 22.725C67.1426 22.725 64.9676 23.65 63.1676 25.5C61.4176 27.35 60.5426 29.875 60.5426 33.075C60.5426 36.275 61.4176 38.8 63.1676 40.65C64.9676 42.5 67.1426 43.425 69.6926 43.425C72.2426 43.425 74.4176 42.5 76.2176 40.65C78.0176 38.75 78.9176 36.2 78.9176 33ZM117.746 54.6C113.646 54.6 109.946 53.725 106.646 51.975C103.396 50.225 100.821 47.725 98.9209 44.475C97.0709 41.225 96.1459 37.425 96.1459 33.075C96.1459 28.775 97.0959 25 98.9959 21.75C100.896 18.45 103.496 15.925 106.796 14.175C110.096 12.425 113.796 11.55 117.896 11.55C121.996 11.55 125.696 12.425 128.996 14.175C132.296 15.925 134.896 18.45 136.796 21.75C138.696 25 139.646 28.775 139.646 33.075C139.646 37.375 138.671 41.175 136.721 44.475C134.821 47.725 132.196 50.225 128.846 51.975C125.546 53.725 121.846 54.6 117.746 54.6ZM117.746 43.5C120.196 43.5 122.271 42.6 123.971 40.8C125.721 39 126.596 36.425 126.596 33.075C126.596 29.725 125.746 27.15 124.046 25.35C122.396 23.55 120.346 22.65 117.896 22.65C115.396 22.65 113.321 23.55 111.671 25.35C110.021 27.1 109.196 29.675 109.196 33.075C109.196 36.425 109.996 39 111.596 40.8C113.246 42.6 115.296 43.5 117.746 43.5ZM159.275 19.125C160.775 16.825 162.65 15.025 164.9 13.725C167.15 12.375 169.65 11.7 172.4 11.7V25.275H168.875C165.675 25.275 163.275 25.975 161.675 27.375C160.075 28.725 159.275 31.125 159.275 34.575V54H146.45V12.15H159.275V19.125ZM201.855 43.125V54H195.33C190.68 54 187.055 52.875 184.455 50.625C181.855 48.325 180.555 44.6 180.555 39.45V22.8H175.455V12.15H180.555V1.95H193.38V12.15H201.78V22.8H193.38V39.6C193.38 40.85 193.68 41.75 194.28 42.3C194.88 42.85 195.88 43.125 197.28 43.125H201.855ZM226.024 54.6C222.374 54.6 219.124 53.975 216.274 52.725C213.424 51.475 211.174 49.775 209.524 47.625C207.874 45.425 206.949 42.975 206.749 40.275H219.424C219.574 41.725 220.249 42.9 221.449 43.8C222.649 44.7 224.124 45.15 225.874 45.15C227.474 45.15 228.699 44.85 229.549 44.25C230.449 43.6 230.899 42.775 230.899 41.775C230.899 40.575 230.274 39.7 229.024 39.15C227.774 38.55 225.749 37.9 222.949 37.2C219.949 36.5 217.449 35.775 215.449 35.025C213.449 34.225 211.724 33 210.274 31.35C208.824 29.65 208.099 27.375 208.099 24.525C208.099 22.125 208.749 19.95 210.049 18C211.399 16 213.349 14.425 215.899 13.275C218.499 12.125 221.574 11.55 225.124 11.55C230.374 11.55 234.499 12.85 237.499 15.45C240.549 18.05 242.299 21.5 242.749 25.8H230.899C230.699 24.35 230.049 23.2 228.949 22.35C227.899 21.5 226.499 21.075 224.749 21.075C223.249 21.075 222.099 21.375 221.299 21.975C220.499 22.525 220.099 23.3 220.099 24.3C220.099 25.5 220.724 26.4 221.974 27C223.274 27.6 225.274 28.2 227.974 28.8C231.074 29.6 233.599 30.4 235.549 31.2C237.499 31.95 239.199 33.2 240.649 34.95C242.149 36.65 242.924 38.95 242.974 41.85C242.974 44.3 242.274 46.5 240.874 48.45C239.524 50.35 237.549 51.85 234.949 52.95C232.399 54.05 229.424 54.6 226.024 54.6Z" fill="white"/>
</svg>
