<svg width="452" height="101" viewBox="0 0 452 101" fill="none" xmlns="http://www.w3.org/2000/svg">
<path d="M54.7 3.8V17.5H36.1V74H19V17.5H0.4V3.8H54.7ZM97.582 17.6C103.982 17.6 109.115 19.7333 112.982 24C116.849 28.2 118.782 34 118.782 41.4V74H101.782V43.7C101.782 39.9667 100.815 37.0667 98.882 35C96.9487 32.9333 94.3487 31.9 91.082 31.9C87.8154 31.9 85.2154 32.9333 83.282 35C81.3487 37.0667 80.382 39.9667 80.382 43.7V74H63.282V-9.53674e-07H80.382V25.7C82.1154 23.2333 84.482 21.2667 87.482 19.8C90.482 18.3333 93.8487 17.6 97.582 17.6ZM183.265 45.2C183.265 46.8 183.165 48.4667 182.965 50.2H144.265C144.532 53.6667 145.632 56.3333 147.565 58.2C149.565 60 151.998 60.9 154.865 60.9C159.132 60.9 162.098 59.1 163.765 55.5H181.965C181.032 59.1667 179.332 62.4667 176.865 65.4C174.465 68.3333 171.432 70.6333 167.765 72.3C164.098 73.9667 159.998 74.8 155.465 74.8C149.998 74.8 145.132 73.6333 140.865 71.3C136.598 68.9667 133.265 65.6333 130.865 61.3C128.465 56.9667 127.265 51.9 127.265 46.1C127.265 40.3 128.432 35.2333 130.765 30.9C133.165 26.5667 136.498 23.2333 140.765 20.9C145.032 18.5667 149.932 17.4 155.465 17.4C160.865 17.4 165.665 18.5333 169.865 20.8C174.065 23.0667 177.332 26.3 179.665 30.5C182.065 34.7 183.265 39.6 183.265 45.2ZM165.765 40.7C165.765 37.7667 164.765 35.4333 162.765 33.7C160.765 31.9667 158.265 31.1 155.265 31.1C152.398 31.1 149.965 31.9333 147.965 33.6C146.032 35.2667 144.832 37.6333 144.365 40.7H165.765ZM255.977 38C260.044 38.8667 263.311 40.9 265.777 44.1C268.244 47.2333 269.477 50.8333 269.477 54.9C269.477 60.7667 267.411 65.4333 263.277 68.9C259.211 72.3 253.511 74 246.177 74H213.477V3.8H245.077C252.211 3.8 257.777 5.43333 261.777 8.69999C265.844 11.9667 267.877 16.4 267.877 22C267.877 26.1333 266.777 29.5667 264.577 32.3C262.444 35.0333 259.577 36.9333 255.977 38ZM230.577 32.2H241.777C244.577 32.2 246.711 31.6 248.177 30.4C249.711 29.1333 250.477 27.3 250.477 24.9C250.477 22.5 249.711 20.6667 248.177 19.4C246.711 18.1333 244.577 17.5 241.777 17.5H230.577V32.2ZM243.177 60.2C246.044 60.2 248.244 59.5667 249.777 58.3C251.377 56.9667 252.177 55.0667 252.177 52.6C252.177 50.1333 251.344 48.2 249.677 46.8C248.077 45.4 245.844 44.7 242.977 44.7H230.577V60.2H243.177ZM304.795 74.8C299.329 74.8 294.395 73.6333 289.995 71.3C285.662 68.9667 282.229 65.6333 279.695 61.3C277.229 56.9667 275.995 51.9 275.995 46.1C275.995 40.3667 277.262 35.3333 279.795 31C282.329 26.6 285.795 23.2333 290.195 20.9C294.595 18.5667 299.529 17.4 304.995 17.4C310.462 17.4 315.395 18.5667 319.795 20.9C324.195 23.2333 327.662 26.6 330.195 31C332.729 35.3333 333.995 40.3667 333.995 46.1C333.995 51.8333 332.695 56.9 330.095 61.3C327.562 65.6333 324.062 68.9667 319.595 71.3C315.195 73.6333 310.262 74.8 304.795 74.8ZM304.795 60C308.062 60 310.829 58.8 313.095 56.4C315.429 54 316.595 50.5667 316.595 46.1C316.595 41.6333 315.462 38.2 313.195 35.8C310.995 33.4 308.262 32.2 304.995 32.2C301.662 32.2 298.895 33.4 296.695 35.8C294.495 38.1333 293.395 41.5667 293.395 46.1C293.395 50.5667 294.462 54 296.595 56.4C298.795 58.8 301.529 60 304.795 60ZM400.067 18.2L365.067 100.5H346.667L359.467 72.1L336.767 18.2H355.867L368.767 53.1L381.567 18.2H400.067ZM428.951 74.8C424.084 74.8 419.751 73.9667 415.951 72.3C412.151 70.6333 409.151 68.3667 406.951 65.5C404.751 62.5667 403.517 59.3 403.251 55.7H420.151C420.351 57.6333 421.251 59.2 422.851 60.4C424.451 61.6 426.417 62.2 428.751 62.2C430.884 62.2 432.517 61.8 433.651 61C434.851 60.1333 435.451 59.0333 435.451 57.7C435.451 56.1 434.617 54.9333 432.951 54.2C431.284 53.4 428.584 52.5333 424.851 51.6C420.851 50.6667 417.517 49.7 414.851 48.7C412.184 47.6333 409.884 46 407.951 43.8C406.017 41.5333 405.051 38.5 405.051 34.7C405.051 31.5 405.917 28.6 407.651 26C409.451 23.3333 412.051 21.2333 415.451 19.7C418.917 18.1667 423.017 17.4 427.751 17.4C434.751 17.4 440.251 19.1333 444.251 22.6C448.317 26.0667 450.651 30.6667 451.251 36.4H435.451C435.184 34.4667 434.317 32.9333 432.851 31.8C431.451 30.6667 429.584 30.1 427.251 30.1C425.251 30.1 423.717 30.5 422.651 31.3C421.584 32.0333 421.051 33.0667 421.051 34.4C421.051 36 421.884 37.2 423.551 38C425.284 38.8 427.951 39.6 431.551 40.4C435.684 41.4667 439.051 42.5333 441.651 43.6C444.251 44.6 446.517 46.2667 448.451 48.6C450.451 50.8667 451.484 53.9333 451.551 57.8C451.551 61.0667 450.617 64 448.751 66.6C446.951 69.1333 444.317 71.1333 440.851 72.6C437.451 74.0667 433.484 74.8 428.951 74.8Z" fill="white"/>
</svg>
