<svg width="147" height="51" viewBox="0 0 147 51" fill="none" xmlns="http://www.w3.org/2000/svg">
<path d="M49.1836 35.9863C49.1836 38.0143 48.7962 39.9284 48.0215 41.7285C47.2695 43.5059 46.2214 45.0667 44.877 46.4111C43.5553 47.7327 41.9945 48.7809 40.1943 49.5557C38.417 50.3076 36.5143 50.6836 34.4863 50.6836C32.6634 50.6836 30.9089 50.3646 29.2227 49.7266C27.5592 49.0885 26.0553 48.1543 24.7109 46.9238C23.3665 48.1543 21.8512 49.0885 20.165 49.7266C18.4788 50.3646 16.7243 50.6836 14.9014 50.6836C12.8734 50.6836 10.9593 50.3076 9.15918 49.5557C7.38184 48.7809 5.82096 47.7327 4.47656 46.4111C3.15495 45.0667 2.10677 43.5059 1.33203 41.7285C0.580078 39.9284 0.204102 38.0143 0.204102 35.9863V0.986328H10.0137V35.9863C10.0137 36.6699 10.139 37.3193 10.3896 37.9346C10.6403 38.527 10.9821 39.0511 11.415 39.5068C11.8708 39.9398 12.3949 40.2816 12.9873 40.5322C13.5798 40.7829 14.2178 40.9082 14.9014 40.9082C15.585 40.9082 16.223 40.7829 16.8154 40.5322C17.4079 40.2816 17.9206 39.9398 18.3535 39.5068C18.8092 39.0511 19.1624 38.527 19.4131 37.9346C19.6637 37.3193 19.7891 36.6699 19.7891 35.9863V0.986328H29.5986V35.9863C29.5986 36.6699 29.724 37.3193 29.9746 37.9346C30.2253 38.527 30.5671 39.0511 31 39.5068C31.4557 39.9398 31.9798 40.2816 32.5723 40.5322C33.1647 40.7829 33.8027 40.9082 34.4863 40.9082C35.1699 40.9082 35.8079 40.7829 36.4004 40.5322C36.9928 40.2816 37.5055 39.9398 37.9385 39.5068C38.3942 39.0511 38.7474 38.527 38.998 37.9346C39.2715 37.3193 39.4082 36.6699 39.4082 35.9863V0.986328H49.1836V35.9863ZM78.5439 50H68.7686V10.7959H54.0371V0.986328H93.2412V10.7959H78.5439V50ZM146.527 50H136.752V15C136.752 14.3164 136.615 13.6784 136.342 13.0859C136.091 12.4935 135.738 11.9808 135.282 11.5479C134.849 11.0921 134.337 10.7389 133.744 10.4883C133.152 10.2376 132.514 10.1123 131.83 10.1123C131.146 10.1123 130.508 10.2376 129.916 10.4883C129.324 10.7389 128.799 11.0921 128.344 11.5479C127.911 11.9808 127.569 12.4935 127.318 13.0859C127.068 13.6784 126.942 14.3164 126.942 15V50H117.133V15C117.133 14.3164 117.007 13.6784 116.757 13.0859C116.506 12.4935 116.153 11.9808 115.697 11.5479C115.264 11.0921 114.752 10.7389 114.159 10.4883C113.567 10.2376 112.929 10.1123 112.245 10.1123C111.562 10.1123 110.924 10.2376 110.331 10.4883C109.739 10.7389 109.215 11.0921 108.759 11.5479C108.326 11.9808 107.984 12.4935 107.733 13.0859C107.483 13.6784 107.357 14.3164 107.357 15V50H97.5479V15C97.5479 12.972 97.9238 11.0693 98.6758 9.29199C99.4505 7.49186 100.499 5.93099 101.82 4.60938C103.165 3.26497 104.726 2.2168 106.503 1.46484C108.303 0.690104 110.217 0.302734 112.245 0.302734C114.068 0.302734 115.823 0.633138 117.509 1.29395C119.195 1.93197 120.71 2.86621 122.055 4.09668C123.399 2.86621 124.903 1.93197 126.566 1.29395C128.253 0.633138 130.007 0.302734 131.83 0.302734C133.858 0.302734 135.761 0.690104 137.538 1.46484C139.338 2.2168 140.899 3.26497 142.221 4.60938C143.565 5.93099 144.613 7.49186 145.365 9.29199C146.14 11.0693 146.527 12.972 146.527 15V50Z" fill="white"/>
</svg>
